# xmcd CD database file
#
# Track frame offsets:
#	150
#	20037
#	37616
#	56845
#	79720
#	99623
#	118589
#	142761
#	160771
#	183421
#	202867
#	222031
#
# Disc length: 3228 seconds
#
# Revision: 0
# Processed by: cddbd v1.5.1PL2 Copyright (c) Steve Scherf et al.
# Submitted via: CDex 1.51
#
DISCID=940c9a0c
DTITLE=Candy Dulfer - Saxuality
DYEAR=1991
DGENRE=Jazz
TTITLE0=Lily Was Here
TTITLE1=Pee Wee
TTITLE2=Saxuality
TTITLE3=So What
TTITLE4=Jazzid
TTITLE5=Heavenly City
TTITLE6=Donja
TTITLE7=There Goes The Neighborhood
TTITLE8=Mr. Lee
TTITLE9=Get The Funk
TTITLE10=Home In Not A House
TTITLE11=Lily Was Here (DNA Remix)
EXTD=YEAR: 1991
EXTT0=
EXTT1=
EXTT2=
EXTT3=
EXTT4=
EXTT5=
EXTT6=
EXTT7=
EXTT8=
EXTT9=
EXTT10=
EXTT11=
PLAYORDER=
